<svg width="85" height="92" viewBox="0 0 85 92" fill="none" xmlns="http://www.w3.org/2000/svg">
<g filter="url(#filter0_n_877_9189)">
<g clip-path="url(#clip0_877_9189)">
<g filter="url(#filter1_n_877_9189)">
<path fill-rule="evenodd" clip-rule="evenodd" d="M14.8601 44.0963C11.008 44.1706 4.57424 42.4641 4.3125 32.8693C4.54369 22.8967 9.22371 18.1576 15.1856 14.9488C15.3081 14.8825 15.5795 10.61 20.7009 6.05159C25.029 1.89108 31.7551 1.71739 36.0007 5.96498C37.3219 7.28664 37.5741 7.13066 38.6428 8.57119C40.5548 8.03117 48.7048 7.05642 55.6441 7.86038C65.712 9.02677 76.3057 14.0774 79.621 28.5899C82.4891 41.1461 76.7872 54.2467 67.5056 60.6158C61.0202 65.0665 50.7016 69.0907 39.9264 70.0664C38.1075 74.4214 36.6806 77.0919 36.6806 77.0919L36.6803 77.0926C36.5411 77.353 36.3927 77.6053 36.2363 77.8493C30.0153 88.5628 20.399 90.3971 15.0976 87.7734C8.63654 84.5757 4.64897 80.3182 8.87583 72.7327C9.00615 72.4986 12.0881 68.5543 15.137 63.8482C11.2013 58.9752 11.29 51.7601 13.9269 45.7625C14.182 45.1824 14.4957 44.6262 14.8601 44.0963ZM20.5827 67.89C20.4697 68.1103 20.4082 68.2251 20.4082 68.2251C18.4159 71.9489 19.789 76.6077 23.4696 78.6232C27.1553 80.6411 31.7672 79.2549 33.7625 75.5265C33.7776 75.4978 34.8212 73.5413 36.2437 70.2748C31.4182 70.3934 26.5766 69.8492 22.0169 68.4114C21.5185 68.2539 21.0407 68.08 20.5827 67.89ZM41.3625 20.1418C41.4442 20.282 41.5245 20.4227 41.604 20.5639C39.9191 16.1055 37.3683 11.9386 33.7334 8.3019C32.2539 6.82183 30.3227 6.08313 28.3926 6.08337C26.4083 6.06299 24.4186 6.82353 22.9148 8.36207C19.9723 11.3724 19.9992 16.2333 22.9748 19.21C27.9777 24.2154 29.2742 30.9343 29.0567 37.605C30.1397 37.661 31.1874 37.8364 32.1648 38.1413C36.1579 39.3866 40.2957 39.9712 44.1393 39.8609C44.5214 33.1381 43.7947 26.3476 41.3625 20.1418ZM15.4926 18.5004C12.5446 20.4062 10.2979 22.7111 11.2701 27.5128C12.2449 32.3266 16.8848 35.4313 21.6252 34.4415L22.8364 34.1562C22.4984 29.8904 21.6624 26.694 18.5746 23.4073C18.4593 23.2848 18.3415 23.1633 18.2212 23.043C16.9114 21.7322 16.0013 20.166 15.4926 18.5004ZM24.2765 42.1155C22.4521 43.2043 21.0079 44.9617 20.3383 47.1756C19.6981 49.2917 19.8744 51.4664 20.6843 53.3494C21.4997 55.2443 22.9564 56.8435 24.8688 57.7906C24.8651 57.8015 24.8611 57.8124 24.8574 57.8233C25.2428 58.0101 25.6467 58.1705 26.0671 58.3015C30.6374 59.727 35.3145 60.5331 39.8756 60.7793C39.876 60.7781 39.8764 60.7767 39.8767 60.7755C41.0345 60.8395 42.1845 60.8677 43.3239 60.8606C52.3835 60.8043 60.746 58.5288 66.5826 54.5233C74.7455 48.9218 78.9963 40.3742 76.4739 29.3313C76.2637 28.4108 76.0211 27.537 75.7487 26.7078C72.2106 15.923 63.5393 12.024 55.298 11.1221C49.4264 10.4794 42.6241 10.9712 40.6406 11.5568C43.6556 16.5698 46.326 23.6545 47.0825 29.373C48.3665 29.0508 50.7251 28.5338 53.4187 28.8286C55.8027 29.0896 58.6053 29.9212 59.3898 33.3554C60.2865 37.2818 57.5962 39.7335 54.0788 41.198C52.0228 42.0542 49.6995 42.6269 47.2179 42.9176C46.1287 43.0452 45.0084 43.1182 43.8672 43.1369C43.8672 43.1364 43.8672 43.1356 43.8672 43.1352C43.5963 43.1403 43.3239 43.1422 43.0507 43.141C39.231 43.1177 35.2004 42.4957 31.2953 41.2776C28.849 40.5147 26.3233 40.8941 24.2765 42.1155ZM47.5298 35.3285C47.5596 36.7476 47.5371 38.17 47.4672 39.5904C49.2268 39.3412 50.8878 38.9271 52.4005 38.3442C54.7248 37.3308 54.0898 33.6562 49.7573 34.7799C49.1079 34.9483 48.347 35.1366 47.5298 35.3285Z" fill="#2C2C2C"/>
</g>
</g>
</g>
<defs>
<filter id="filter0_n_877_9189" x="0" y="0" width="85" height="92" filterUnits="userSpaceOnUse" color-interpolation-filters="sRGB">
<feFlood flood-opacity="0" result="BackgroundImageFix"/>
<feBlend mode="normal" in="SourceGraphic" in2="BackgroundImageFix" result="shape"/>
<feTurbulence type="fractalNoise" baseFrequency="2 2" stitchTiles="stitch" numOctaves="3" result="noise" seed="7532" />
<feColorMatrix in="noise" type="luminanceToAlpha" result="alphaNoise" />
<feComponentTransfer in="alphaNoise" result="coloredNoise1">
<feFuncA type="discrete" tableValues="1 1 1 1 1 1 1 1 1 1 1 1 1 1 1 1 1 1 1 1 1 1 1 1 1 1 1 1 1 1 1 1 1 1 1 1 1 1 1 1 1 1 1 1 1 1 1 1 1 1 1 0 0 0 0 0 0 0 0 0 0 0 0 0 0 0 0 0 0 0 0 0 0 0 0 0 0 0 0 0 0 0 0 0 0 0 0 0 0 0 0 0 0 0 0 0 0 0 0 0 "/>
</feComponentTransfer>
<feComposite operator="in" in2="shape" in="coloredNoise1" result="noise1Clipped" />
<feComponentTransfer in="alphaNoise" result="coloredNoise2">
<feFuncA type="discrete" tableValues="0 0 0 0 0 0 0 0 0 0 0 0 0 0 0 0 0 0 0 0 0 0 0 0 0 0 0 0 0 0 0 0 0 0 0 0 0 0 0 0 0 0 0 0 0 0 0 0 0 1 1 1 1 1 1 1 1 1 1 1 1 1 1 1 1 1 1 1 1 1 1 1 1 1 1 1 1 1 1 1 1 1 1 1 1 1 1 1 1 1 1 1 1 1 1 1 1 1 1 1 "/>
</feComponentTransfer>
<feComposite operator="in" in2="shape" in="coloredNoise2" result="noise2Clipped" />
<feFlood flood-color="rgba(0, 0, 0, 0.23)" result="color1Flood" />
<feComposite operator="in" in2="noise1Clipped" in="color1Flood" result="color1" />
<feFlood flood-color="rgba(255, 255, 255, 0.11)" result="color2Flood" />
<feComposite operator="in" in2="noise2Clipped" in="color2Flood" result="color2" />
<feMerge result="effect1_noise_877_9189">
<feMergeNode in="shape" />
<feMergeNode in="color1" />
<feMergeNode in="color2" />
</feMerge>
</filter>
<filter id="filter1_n_877_9189" x="4.3125" y="2.85449" width="76.0547" height="85.9834" filterUnits="userSpaceOnUse" color-interpolation-filters="sRGB">
<feFlood flood-opacity="0" result="BackgroundImageFix"/>
<feBlend mode="normal" in="SourceGraphic" in2="BackgroundImageFix" result="shape"/>
<feTurbulence type="fractalNoise" baseFrequency="2 2" stitchTiles="stitch" numOctaves="3" result="noise" seed="7532" />
<feColorMatrix in="noise" type="luminanceToAlpha" result="alphaNoise" />
<feComponentTransfer in="alphaNoise" result="coloredNoise1">
<feFuncA type="discrete" tableValues="1 1 1 1 1 1 1 1 1 1 1 1 1 1 1 1 1 1 1 1 1 1 1 1 1 1 1 1 1 1 1 1 1 1 1 1 1 1 1 1 1 1 1 1 1 1 1 1 1 1 1 0 0 0 0 0 0 0 0 0 0 0 0 0 0 0 0 0 0 0 0 0 0 0 0 0 0 0 0 0 0 0 0 0 0 0 0 0 0 0 0 0 0 0 0 0 0 0 0 0 "/>
</feComponentTransfer>
<feComposite operator="in" in2="shape" in="coloredNoise1" result="noise1Clipped" />
<feComponentTransfer in="alphaNoise" result="coloredNoise2">
<feFuncA type="discrete" tableValues="0 0 0 0 0 0 0 0 0 0 0 0 0 0 0 0 0 0 0 0 0 0 0 0 0 0 0 0 0 0 0 0 0 0 0 0 0 0 0 0 0 0 0 0 0 0 0 0 0 1 1 1 1 1 1 1 1 1 1 1 1 1 1 1 1 1 1 1 1 1 1 1 1 1 1 1 1 1 1 1 1 1 1 1 1 1 1 1 1 1 1 1 1 1 1 1 1 1 1 1 "/>
</feComponentTransfer>
<feComposite operator="in" in2="shape" in="coloredNoise2" result="noise2Clipped" />
<feFlood flood-color="rgba(0, 0, 0, 0.23)" result="color1Flood" />
<feComposite operator="in" in2="noise1Clipped" in="color1Flood" result="color1" />
<feFlood flood-color="rgba(255, 255, 255, 0.11)" result="color2Flood" />
<feComposite operator="in" in2="noise2Clipped" in="color2Flood" result="color2" />
<feMerge result="effect1_noise_877_9189">
<feMergeNode in="shape" />
<feMergeNode in="color1" />
<feMergeNode in="color2" />
</feMerge>
</filter>
<clipPath id="clip0_877_9189">
<rect width="76.2069" height="86.1587" fill="white" transform="translate(4.3125 2.85449)"/>
</clipPath>
</defs>
</svg>
