<svg width="85" height="92" viewBox="0 0 85 92" fill="none" xmlns="http://www.w3.org/2000/svg">
<g filter="url(#filter0_n_877_9189)">
<g clip-path="url(#clip0_877_9189)">
<g clip-path="url(#clip1_877_9189)">
<g filter="url(#filter1_n_877_9189)">
<path fill-rule="evenodd" clip-rule="evenodd" d="M4.54491 55.9158C-1.83702 49.5408 -1.72414 41.9556 4.70073 35.6563C2.06993 25.9052 7.22809 18.9188 18.2153 17.5892C25.0453 16.7627 33.5379 18.166 42.2762 21.5645C55.3494 16.4785 67.7567 15.9278 74.7932 20.3518C79.1407 23.0853 81.9142 28.1754 79.8934 35.6786C81.3157 37.0734 82.4592 38.5592 83.2831 40.1173C85.6879 44.6649 85.5546 50.4628 80.0653 55.944C80.6026 57.8652 80.853 59.7252 80.7904 61.4873C80.5984 66.901 77.28 72.1029 68.8986 73.8624C66.0541 74.4595 63.5625 74.4573 62.7994 74.4564C58.242 74.4506 54.1096 73.6339 51.3987 72.9763C42.9807 70.9343 36.0842 67.3926 32.5714 65.4246C32.3408 65.6576 31.7635 65.6059 31.2131 65.2871C30.6123 64.9391 30.2699 64.4038 30.4489 64.0925C30.6278 63.7812 31.2608 63.811 31.8614 64.159C32.4009 64.4715 32.732 64.935 32.6644 65.2517C35.9591 67.096 43.551 71.036 52.6715 72.8549C58.9347 74.1039 63.0596 73.7745 64.2479 73.6861C75.5358 72.847 81.046 66.2659 79.0006 56.9429C76.8883 58.809 74.8162 60.0076 74.1708 60.3806C70.2228 62.6624 66.2387 64.0282 63.5642 64.8187C55.2597 67.2733 47.5249 67.6651 43.5036 67.7226C43.4201 68.0402 42.8945 68.2851 42.2592 68.285C41.5659 68.2849 41.0027 67.993 41.0025 67.6335C41.0023 67.274 41.565 66.9822 42.2584 66.9823C42.8811 66.9823 43.3987 67.2178 43.498 67.5261C47.2689 67.4709 55.8041 67.0752 64.6056 64.0748C70.6497 62.0144 74.0564 59.6592 75.041 58.9865C76.4603 58.0167 77.6987 56.9992 78.7557 55.946C78.3634 54.4998 77.795 52.9928 77.0443 51.4353C76.2453 52.2097 74.8161 53.1722 72.3523 53.5879C70.9077 53.8316 69.3987 53.8181 68.0847 53.6124C66.7585 54.896 65.425 56.0791 64.1224 57.1611C64.1547 57.2083 64.1856 57.2558 64.2151 57.3036C65.683 59.68 63.0624 61.5348 59.7242 62.2443C59.0297 62.3919 57.9722 62.5501 56.8223 62.5343C55.7949 63.2044 54.8785 63.7694 54.1121 64.2283C54.198 64.5453 53.8651 65.0213 53.3151 65.3399C52.7148 65.6877 52.0819 65.7174 51.9025 65.406C51.7232 65.0946 52.0651 64.5595 52.6654 64.2116C53.2044 63.8993 53.7697 63.8436 54.0094 64.0609C54.6757 63.6615 55.5098 63.1482 56.4676 62.5237C55.8031 62.4933 55.1176 62.4002 54.4614 62.2101C48.9951 60.6273 51.2488 58.8834 51.949 56.9675C52.1073 56.5346 52.2856 55.8528 51.9351 55.1241C51.7912 54.8252 51.5941 54.5711 51.3921 54.36C50.8278 54.4611 50.1738 54.363 49.8343 54.1079C49.4418 53.8132 49.6173 53.4197 50.2259 53.2299C50.8345 53.0401 51.6472 53.1253 52.0396 53.4201C52.4114 53.6993 52.2734 54.0671 51.7405 54.2664C52.4773 55.0174 52.7489 55.8323 52.4269 56.8986C51.9404 58.5092 50.4112 59.9017 52.66 61.0796C52.8603 61.1844 53.5024 61.5168 54.9057 61.886C55.5591 62.0579 56.3212 62.1243 57.1138 62.0978C58.799 60.9747 60.8022 59.5434 62.9198 57.8159C62.5078 57.099 61.5568 56.176 59.4621 55.1369C58.6236 54.7209 57.4071 54.1923 55.7802 53.3503C51.736 51.257 50.5234 49.8969 51.8334 48.6598C54.0194 46.5953 61.5468 46.0971 65.8615 45.022C68.4284 44.3825 68.6487 43.8237 68.3288 43.2554C67.6731 42.0903 64.4089 40.6849 63.6739 40.3287C60.238 38.6634 60.047 37.3555 60.1995 36.6798C60.3929 35.8221 61.4108 35.0934 62.9153 34.5994C61.8335 33.7176 60.7045 32.8499 59.5301 32.0004C59.2042 32.9892 58.083 33.9257 56.0427 34.4555C52.5517 35.362 48.2023 34.6187 46.3761 34.2618C45.2052 34.0329 39.0315 32.6197 34.4081 33.2958C30.8095 33.8219 30.1093 35.3816 31.1584 36.3375C31.6429 36.7791 32.3025 36.9615 32.5782 37.0406C33.3832 37.2647 36.0435 37.572 40.4526 36.6239C41.7677 36.3411 42.2136 36.1668 43.4089 35.9859C48.5119 35.2133 53.7614 36.7203 57.1145 39.0214C58.3463 39.8668 59.2693 40.7869 59.8277 41.6922C60.0744 42.0921 60.2187 42.4395 60.3049 42.7163C60.9658 42.7322 61.5088 42.9883 61.5448 43.3151C61.5832 43.664 61.0294 43.9622 60.3089 43.9806C59.5884 43.999 58.9722 43.7307 58.9338 43.3818C58.9002 43.0766 59.3199 42.8102 59.9079 42.7359C59.6652 41.9957 58.9654 40.6986 56.8812 39.2982C53.9874 37.3537 49.47 35.9741 45.188 36.3482C43.5691 36.4897 42.546 36.8273 42.039 36.966C40.9523 37.2634 38.7278 37.8247 36.3534 38.0153C33.4633 38.2474 31.8977 37.8555 31.6777 37.7954C31.3317 37.7065 29.7001 37.2928 29.0213 36.2111C27.8762 34.3863 30.5944 31.8913 38.1891 32.0787C42.3753 32.1821 46.2756 33.0489 47.2935 33.2392C52.8788 34.2834 56.2061 33.6218 57.0366 32.0633C57.5345 31.1288 56.9338 30.0573 55.6355 29.6145C53.0402 28.7293 51.1759 29.2085 47.9988 29.6979C44.3166 30.2652 41.4097 30.2521 38.197 29.7324C37.502 29.6199 35.5949 29.2396 33.1961 29.0959C31.5155 28.9952 30.1892 29.0634 29.1462 29.2117C27.5934 30.1872 25.9117 31.3176 24.1729 32.6058C24.0602 33.4408 24.3214 34.38 25.0381 35.3605C26.3279 37.1252 29.117 39.5996 29.1217 42.1C29.1242 43.3885 28.383 44.3346 27.6671 44.9775C28.1759 45.1827 28.2918 45.5455 27.9145 45.817C27.5116 46.1068 26.6986 46.1836 26.1 45.9884C25.5013 45.7932 25.3423 45.3996 25.745 45.1098C26.0967 44.8567 26.7612 44.7661 27.3227 44.8772C28.5348 43.7734 29.2242 42.3075 28.0857 40.1932C26.9799 38.1397 24.6646 36.3326 23.7253 34.8592C23.4178 34.3765 23.2089 33.8909 23.1026 33.4138C21.837 34.3872 20.5496 35.4425 19.2669 36.5811C20.5866 37.1471 21.6105 38.0026 21.9558 39.1767C22.6866 41.6618 20.3174 44.9252 16.6133 47.406C15.4871 48.1603 14.3472 48.7191 14.1312 48.8249C11.9391 49.8994 10.9979 50.815 10.6872 51.1041C8.79262 52.8671 9.40838 54.008 9.42203 54.0393C9.79689 54.9027 11.015 55.1205 11.7819 55.1903C13.1904 55.3187 13.9861 55.0022 14.9077 53.7418C15.8274 52.4841 16.3316 51.2094 18.3041 49.7858C19.8774 48.6505 21.8078 47.8167 23.0847 47.3431C22.7833 47.0526 22.9856 46.6933 23.5674 46.5195C24.1823 46.3357 24.99 46.4284 25.3699 46.7263C25.7498 47.0241 25.5589 47.4152 24.9438 47.5989C24.4124 47.7577 23.7369 47.7101 23.3181 47.502C21.8051 48.0722 19.0668 49.2869 17.5833 51.0683C15.8776 53.1166 15.9984 55.3344 13.176 55.8092C13.1276 55.8174 12.372 55.9662 11.1232 55.8502C8.45882 55.6026 7.08703 54.3349 7.46865 52.691C7.78856 51.3129 9.14775 50.173 9.21049 50.1173C10.5931 48.8907 12.1909 48.134 12.5424 47.9557C13.1198 47.6627 15.4284 46.4621 17.3657 44.4912C17.5302 44.3238 20.1193 41.83 19.7668 39.5676C19.6861 39.0495 19.4127 38.202 18.2129 37.5369C17.1727 38.501 16.1405 39.5203 15.131 40.5956C13.6876 42.1328 12.3772 43.6955 11.214 45.2643C11.1317 45.4332 11.0131 45.5943 10.8604 45.7476C8.36023 49.2123 6.58375 52.6971 5.68371 55.9945C5.70334 56.014 5.7231 56.0335 5.74294 56.053C6.21071 56.5132 8.3737 58.736 12.5531 61.0067C16.6088 63.2102 20.6632 64.4579 22.9625 65.0823C23.3115 64.828 23.9745 64.734 24.534 64.875C25.158 65.0321 25.4186 65.4222 25.1159 65.7454C24.8133 66.0688 24.061 66.2037 23.4372 66.0466C22.8657 65.9027 22.5989 65.5632 22.7909 65.2587C19.3078 64.3176 13.6694 62.4905 8.63911 59.1899C8.52226 59.1133 6.99064 58.1173 5.48222 56.7921C4.53103 60.8953 4.98278 64.6758 7.14014 67.7221C8.37511 69.466 10.751 71.8074 15.6099 73.0644C16.244 73.2284 19.2238 74.0689 23.9732 73.9392C28.582 73.8133 32.7134 72.8601 35.015 72.2474C35.1905 71.8519 35.7175 71.4378 36.2721 71.2791C36.8904 71.1022 37.3105 71.3094 37.2095 71.7414C37.1086 72.1734 36.5247 72.6677 35.9063 72.8446C35.3399 73.0066 34.9398 72.8464 34.9543 72.4862C31.4702 73.4185 25.679 74.6647 19.6799 74.329C19.5136 74.3197 16.9487 74.1869 14.6038 73.573C5.83142 71.2759 2.11257 64.6301 4.54491 55.9158ZM5.07621 36.8852C2.20772 39.9599 0.715489 43.4592 1.06663 47.1788C1.24883 49.1073 1.99764 51.93 4.79983 55.0649C5.04156 54.3096 5.32847 53.5397 5.66105 52.7567C6.64972 50.4294 8.00854 48.058 9.69245 45.6974C9.07821 44.9196 7.90682 43.1033 6.61657 40.5449C6.55354 40.4199 5.72282 38.7892 5.07621 36.8852ZM41.0341 22.0607C38.6637 21.1797 36.1216 20.3805 33.4513 19.7463C20.6199 16.6988 9.53803 18.6795 6.04051 26.3478C5.23735 28.1087 4.47977 30.9278 5.34562 35.0477C5.93136 34.5151 6.56356 33.9926 7.24189 33.4817C13.9695 28.4144 24.5121 24.9893 36.4113 24.1349C37.9543 23.3819 39.4977 22.6902 41.0341 22.0607ZM79.0907 34.9273C80.9578 25.4296 74.9024 18.8504 62.7726 18.4998C57.2121 18.3391 50.5753 19.5103 43.5742 22.0834C45.0948 22.7075 46.6207 23.3914 48.1444 24.134C61.2737 25.072 72.6281 29.1489 79.0907 34.9273ZM79.7442 54.8909C84.6741 49.235 84.5901 42.7057 79.4695 37.0782C78.9896 38.5074 78.4247 39.7659 77.9458 40.7271C77.9783 40.9564 77.9994 41.1939 78.0068 41.4395C78.0742 43.6788 76.9541 45.3689 75.3694 46.3751C77.3493 49.2535 78.8324 52.1274 79.7442 54.8909ZM76.8969 51.1338C76.7301 50.7967 76.5547 50.4573 76.3708 50.1158C75.7968 49.0497 75.1434 47.971 74.4134 46.8862C74.251 46.9594 74.0864 47.0279 73.92 47.0921C72.5128 48.9425 71.1326 50.4847 70.031 51.6469C69.4676 52.2412 68.8993 52.817 68.3295 53.3743C69.5017 53.5635 70.8573 53.5862 72.1689 53.3799C74.7627 52.9722 76.1741 51.9028 76.8969 51.1338ZM63.9648 56.9464C65.1903 55.9066 66.4421 54.7712 67.6825 53.5423C65.5243 53.1265 64.0057 52.176 64.3955 51.0096C65.1141 48.8591 67.3287 48.1836 69.2906 47.7081C70.9212 47.3128 72.5568 47.0233 73.8494 46.295C73.8761 46.2569 73.9025 46.219 73.9289 46.1812C71.4353 42.6279 68.1318 39.0255 64.124 35.6072C62.8741 36.0542 62.1877 36.764 62.8424 37.6938C63.5801 38.7414 65.553 39.5749 66.2435 39.9028C69.9047 41.6416 71.5956 43.1575 70.4715 44.4455C68.8875 46.26 62.3499 46.7242 57.6307 47.7181C56.3197 47.9943 54.2035 48.5027 53.5796 49.2857C53.0441 49.9576 53.6815 51.0605 59.9002 54.0956C60.5265 54.4013 62.8286 55.4953 63.9648 56.9464ZM57.5163 62.0765C60.1926 61.8846 63.0624 60.6782 63.206 58.9298C63.2242 58.7078 63.1999 58.4083 63.0373 58.0453C61.0505 59.6337 59.1631 60.9785 57.5163 62.0765ZM59.5696 30.8921C61.1268 31.993 62.6164 33.1305 64.0319 34.2959C64.9132 34.1002 65.9028 33.9734 66.9546 33.9298C69.3367 33.8309 70.9232 34.2124 71.1368 34.2606C73.8217 34.865 75.2159 36.1054 75.6734 36.5315C76.0459 36.8783 77.0968 37.9116 77.6535 39.5206C78.1132 38.4314 78.4817 37.369 78.7607 36.3372C77.4038 34.9856 75.7474 33.6921 73.7913 32.4827C68.007 28.9064 59.8431 26.2436 50.359 25.2553C52.1126 26.1771 53.8585 27.176 55.5854 28.2502C56.1966 28.3844 57.0628 28.6204 57.6976 28.9256C58.7331 29.4234 59.3762 30.1339 59.5696 30.8921ZM30.7979 28.2015C33.2647 28.0586 35.5855 28.3068 36.8459 28.4652C38.3242 28.6509 38.9069 28.7961 40.3201 28.9189C42.6392 29.1205 44.3179 28.9709 44.9649 28.9094C48.0201 28.6194 50.5165 27.8432 53.3671 27.9663C51.8374 27.0639 50.0142 26.0567 47.9484 25.0424C46.0368 24.9015 41.9195 24.6612 36.6941 25.0204C35.5108 25.5946 33.4057 26.649 30.7979 28.2015ZM25.2407 30.7236C25.5137 30.5318 25.7888 30.3412 26.0657 30.1518C25.7568 30.3218 25.4807 30.5133 25.2407 30.7236ZM18.2927 36.2295C19.784 34.8934 21.3704 33.5881 23.0418 32.3253C23.2552 30.5449 25.0664 29.0243 28.6954 28.4278C30.482 27.3051 32.3391 26.2344 34.2578 25.2262C30.3484 25.6189 25.9688 26.3633 21.5058 27.7058C14.832 29.7132 9.28139 32.6926 5.64818 36.2958C5.65548 36.3226 5.66288 36.3494 5.6704 36.3763C5.84625 37.0093 6.61279 40.0187 9.1024 44.0814C9.45671 44.6596 9.71197 45.1078 9.88106 45.4348C10.118 45.1075 10.3612 44.7803 10.6106 44.4536C10.4734 44.0343 10.1462 43.6926 9.98967 43.5008C8.29393 41.4225 8.16055 40.1733 8.1491 39.6123C8.14069 39.1948 8.18565 38.3632 8.97718 37.5317C10.5432 35.8865 13.6812 35.7558 13.895 35.7432C15.3224 35.659 16.9036 35.8123 18.2927 36.2295ZM11.0967 43.8267C12.8855 41.5568 14.9666 39.3105 17.2993 37.1369C17.2295 37.1129 17.1577 37.0894 17.0839 37.0665C15.2092 36.4843 12.6805 36.5472 11.1256 37.4847C10.8887 37.6274 9.94387 38.1752 9.66028 39.3781C9.31164 40.857 10.2422 42.4545 10.4052 42.7409C10.7141 43.2838 10.9382 43.5577 11.0967 43.8267ZM45.7349 23.9981C44.6502 23.5071 43.5121 23.0225 42.3264 22.5554C41.1874 22.9985 40.0399 23.4784 38.887 23.9953C41.1338 23.903 43.4217 23.9019 45.7349 23.9981ZM67.9248 53.301C68.8156 52.4086 69.6993 51.4679 70.5618 50.4798C71.5159 49.3868 72.345 48.3487 73.0627 47.3844C70.5602 48.1395 67.8262 48.2174 66.221 49.557C66.1244 49.6376 65.4973 50.133 65.1151 51.0727C64.709 52.0714 66.015 52.9153 67.9248 53.301ZM65.2324 35.3059C68.9348 38.4906 72.0858 41.8598 74.5645 45.2419C75.2994 44.1247 75.8546 43.1656 76.263 42.4095C76.292 41.7958 76.2194 41.0449 75.922 40.1942C75.6977 39.5523 74.924 37.4899 72.4092 36.1066C70.6877 35.1595 68.9606 35.0445 67.6115 35.0626C66.7941 35.0735 65.9699 35.1564 65.2324 35.3059ZM18.6258 56.7405C17.5458 58.015 16.7505 59.9033 19.3352 60.8034C19.381 60.8193 20.3669 61.2044 22.3383 61.3014C24.4971 61.4077 25.7771 61.0081 26.6666 60.3868C27.9523 59.489 28.3703 57.987 28.4684 57.7515C29.5102 55.2519 33.0318 53.0733 36.5382 51.7633C39.5265 50.6468 43.2973 49.912 45.7683 50.702C46.0552 50.7938 46.9244 51.0897 47.3934 51.763C48.0724 52.7379 46.8311 53.4205 46.5122 53.5952C44.7459 54.5628 41.0827 55.2599 38.3766 56.4484C38.2852 56.4886 36.4547 57.2411 35.744 58.1617C34.9842 59.146 35.9695 59.8963 37.7893 59.927C39.8954 59.9626 41.9276 59.0502 42.1621 58.9606C44.9185 57.9059 47.7842 59.0918 47.9599 60.6762C48.0549 61.5326 47.2816 62.5425 44.874 63.11C42.5585 63.6557 39.5489 63.596 37.4488 63.4688C37.2596 63.7687 36.635 63.9615 35.9792 63.9079C35.2664 63.8496 34.7849 63.5222 34.9049 63.177C35.0248 62.832 35.7008 62.5991 36.4136 62.6573C37.0496 62.7092 37.5014 62.9755 37.5063 63.2774C39.5869 63.3953 43.3934 63.4678 45.6215 62.5283C48.2746 61.4096 46.992 59.5064 45.017 59.1862C43.8578 58.9982 42.9861 59.488 42.7945 59.5784C42.314 59.805 40.5483 60.6286 38.2315 60.7671C35.9233 60.905 34.078 60.2932 33.5315 59.3016C32.9275 58.2059 34.1897 57.1933 34.2626 57.1298C35.5299 56.024 37.4393 55.2995 38.3505 54.9679C41.0907 53.9706 44.0969 53.3137 44.9637 52.6504C45.1868 52.4797 45.3123 52.2878 44.9697 51.9596C44.7645 51.7631 44.2437 51.3696 42.2811 51.5714C38.9968 51.9089 34.0544 53.8173 31.524 56.2811C30.4564 57.3207 30.3028 57.8647 29.9862 58.4466C29.5648 59.221 29.003 59.9661 28.1086 60.5859C27.3053 61.1426 25.3582 62.2443 21.1504 61.6434C15.7511 60.8724 16.8694 58.3275 18.1632 56.7728C18.196 56.7334 18.2285 56.6952 18.2603 56.6585C17.7032 56.4789 17.5102 56.1196 17.8344 55.8291C18.178 55.5213 18.9732 55.4066 19.6092 55.5731C20.2452 55.7397 20.4826 56.1248 20.139 56.4327C19.8413 56.6994 19.2044 56.8212 18.6258 56.7405ZM34.6507 48.4441C34.7783 48.0372 35.0524 47.5312 35.6182 46.9872C36.7861 45.8643 38.8778 44.9224 41.3768 45.017C42.1186 45.045 42.4805 45.1491 43.9467 45.2712C44.148 45.288 45.2336 45.3784 46.4876 45.39C46.8541 45.3934 47.9277 45.4021 49.1984 45.2495C50.1689 45.133 50.8074 44.9573 51.3163 44.7747C52.807 44.2398 53.2723 43.3029 52.4802 42.4243C51.6362 41.4881 49.9542 41.1523 49.053 40.9966C46.9163 40.6276 44.2862 40.5856 41.8754 40.958C39.1967 41.3718 37.6525 42.1233 36.9563 42.4886C36.0326 42.9731 35.3464 43.4965 34.7113 44.1278C34.0645 44.7706 33.7621 45.3028 33.5843 45.5824C33.2514 46.106 33.1589 46.3852 32.6152 47.5426C32.614 47.5454 32.1508 48.4628 31.6052 49.4118C31.5431 49.52 31.2832 49.9955 30.6821 50.8682C28.8877 53.4727 27.1667 54.9266 25.0947 54.9892C25.0126 54.9916 24.1431 55.0413 23.1627 54.6147C22.6385 54.3866 21.985 53.8311 22.7365 51.9093C21.8147 51.7348 21.2939 51.2473 21.5605 50.7749C21.8457 50.2697 22.9245 49.9719 23.968 50.1103C25.0116 50.2486 25.6274 50.7712 25.3421 51.2764C25.0934 51.7171 24.2406 52.0001 23.334 51.9732C22.9569 53.0527 22.9976 54.0057 23.6712 54.2915C23.6739 54.2927 23.9393 54.4012 24.2656 54.4685C24.7939 54.5775 25.6979 54.6488 26.7973 53.6719C28.2949 52.3412 28.9886 49.9349 29.1048 49.5932C29.5015 48.4277 29.6463 47.6708 29.7911 47.1218C30.0636 46.0888 30.1084 45.7477 30.3906 45.0864C30.3918 45.0838 30.538 44.7659 30.7901 44.37C31.4087 43.3989 32.0955 42.8228 32.2966 42.6512C33.1317 41.9389 34.008 41.4354 34.6699 41.102C35.9192 40.4725 37.2982 40.0682 37.55 39.9945C38.2832 39.7795 40.9483 39.0129 44.9178 38.9899C47.7837 38.9733 50.627 39.3926 52.4327 40.0092C55.2031 40.9551 56.3875 42.5103 55.7424 43.8928C55.1259 45.2144 53.1004 45.8104 52.5158 45.97C51.6158 46.2158 50.5894 46.3268 50.4144 46.3457C49.6759 46.4256 48.7358 46.4873 47.3584 46.4378C45.9734 46.388 44.8345 46.2519 43.8438 46.1075C42.4917 45.9104 41.7672 45.7445 41.4169 45.6976C39.8282 45.4849 38.0647 45.9561 36.8155 46.7576C36.2624 47.1124 35.805 47.5344 35.5105 47.9861C35.4012 48.1538 35.3233 48.3117 35.2686 48.4571C36.0949 48.5391 36.7489 48.8753 36.8281 49.3027C36.9248 49.8244 36.1286 50.2858 35.051 50.3323C33.9735 50.3789 33.0201 49.993 32.9235 49.4712C32.8283 48.9576 33.5986 48.5025 34.6507 48.4441Z" fill="#2C2C2C"/>
</g>
</g>
</g>
</g>
<defs>
<filter id="filter0_n_877_9189" x="0" y="0" width="85" height="92" filterUnits="userSpaceOnUse" color-interpolation-filters="sRGB">
<feFlood flood-opacity="0" result="BackgroundImageFix"/>
<feBlend mode="normal" in="SourceGraphic" in2="BackgroundImageFix" result="shape"/>
<feTurbulence type="fractalNoise" baseFrequency="2 2" stitchTiles="stitch" numOctaves="3" result="noise" seed="7532" />
<feColorMatrix in="noise" type="luminanceToAlpha" result="alphaNoise" />
<feComponentTransfer in="alphaNoise" result="coloredNoise1">
<feFuncA type="discrete" tableValues="1 1 1 1 1 1 1 1 1 1 1 1 1 1 1 1 1 1 1 1 1 1 1 1 1 1 1 1 1 1 1 1 1 1 1 1 1 1 1 1 1 1 1 1 1 1 1 1 1 1 1 0 0 0 0 0 0 0 0 0 0 0 0 0 0 0 0 0 0 0 0 0 0 0 0 0 0 0 0 0 0 0 0 0 0 0 0 0 0 0 0 0 0 0 0 0 0 0 0 0 "/>
</feComponentTransfer>
<feComposite operator="in" in2="shape" in="coloredNoise1" result="noise1Clipped" />
<feComponentTransfer in="alphaNoise" result="coloredNoise2">
<feFuncA type="discrete" tableValues="0 0 0 0 0 0 0 0 0 0 0 0 0 0 0 0 0 0 0 0 0 0 0 0 0 0 0 0 0 0 0 0 0 0 0 0 0 0 0 0 0 0 0 0 0 0 0 0 0 1 1 1 1 1 1 1 1 1 1 1 1 1 1 1 1 1 1 1 1 1 1 1 1 1 1 1 1 1 1 1 1 1 1 1 1 1 1 1 1 1 1 1 1 1 1 1 1 1 1 1 "/>
</feComponentTransfer>
<feComposite operator="in" in2="shape" in="coloredNoise2" result="noise2Clipped" />
<feFlood flood-color="rgba(0, 0, 0, 0.23)" result="color1Flood" />
<feComposite operator="in" in2="noise1Clipped" in="color1Flood" result="color1" />
<feFlood flood-color="rgba(255, 255, 255, 0.11)" result="color2Flood" />
<feComposite operator="in" in2="noise2Clipped" in="color2Flood" result="color2" />
<feMerge result="effect1_noise_877_9189">
<feMergeNode in="shape" />
<feMergeNode in="color1" />
<feMergeNode in="color2" />
</feMerge>
</filter>
<filter id="filter1_n_877_9189" x="-0.179688" y="17.3574" width="84.9512" height="57.0986" filterUnits="userSpaceOnUse" color-interpolation-filters="sRGB">
<feFlood flood-opacity="0" result="BackgroundImageFix"/>
<feBlend mode="normal" in="SourceGraphic" in2="BackgroundImageFix" result="shape"/>
<feTurbulence type="fractalNoise" baseFrequency="2 2" stitchTiles="stitch" numOctaves="3" result="noise" seed="7532" />
<feColorMatrix in="noise" type="luminanceToAlpha" result="alphaNoise" />
<feComponentTransfer in="alphaNoise" result="coloredNoise1">
<feFuncA type="discrete" tableValues="1 1 1 1 1 1 1 1 1 1 1 1 1 1 1 1 1 1 1 1 1 1 1 1 1 1 1 1 1 1 1 1 1 1 1 1 1 1 1 1 1 1 1 1 1 1 1 1 1 1 1 0 0 0 0 0 0 0 0 0 0 0 0 0 0 0 0 0 0 0 0 0 0 0 0 0 0 0 0 0 0 0 0 0 0 0 0 0 0 0 0 0 0 0 0 0 0 0 0 0 "/>
</feComponentTransfer>
<feComposite operator="in" in2="shape" in="coloredNoise1" result="noise1Clipped" />
<feComponentTransfer in="alphaNoise" result="coloredNoise2">
<feFuncA type="discrete" tableValues="0 0 0 0 0 0 0 0 0 0 0 0 0 0 0 0 0 0 0 0 0 0 0 0 0 0 0 0 0 0 0 0 0 0 0 0 0 0 0 0 0 0 0 0 0 0 0 0 0 1 1 1 1 1 1 1 1 1 1 1 1 1 1 1 1 1 1 1 1 1 1 1 1 1 1 1 1 1 1 1 1 1 1 1 1 1 1 1 1 1 1 1 1 1 1 1 1 1 1 1 "/>
</feComponentTransfer>
<feComposite operator="in" in2="shape" in="coloredNoise2" result="noise2Clipped" />
<feFlood flood-color="rgba(0, 0, 0, 0.23)" result="color1Flood" />
<feComposite operator="in" in2="noise1Clipped" in="color1Flood" result="color1" />
<feFlood flood-color="rgba(255, 255, 255, 0.11)" result="color2Flood" />
<feComposite operator="in" in2="noise2Clipped" in="color2Flood" result="color2" />
<feMerge result="effect1_noise_877_9189">
<feMergeNode in="shape" />
<feMergeNode in="color1" />
<feMergeNode in="color2" />
</feMerge>
</filter>
<clipPath id="clip0_877_9189">
<rect width="85" height="92" fill="white"/>
</clipPath>
<clipPath id="clip1_877_9189">
<rect width="93.7931" height="61.3333" fill="white" transform="translate(-4.48047 15.2666)"/>
</clipPath>
</defs>
</svg>
